<svg xmlns="http://www.w3.org/2000/svg" fill="none" viewBox="12.543661971830986 0 48.62816901408451 44.72" style="max-height: 500px" width="48.62816901408451" height="44.72">
<g clip-path="url(#clip0_4_3)">
<path fill="#3BAE85" d="M12.625 0V2.6875V6.71875C12.625 11.909 16.841 16.125 22.0313 16.125H24.7188H28.75H29.9258H34.125H36.8125V10.8844V10.75H34.125H33.218C33.8059 9.52383 34.125 8.16328 34.125 6.71875V2.6875V0H28.75V2.6875V6.71875C28.75 8.95273 26.9527 10.75 24.7188 10.75H22.0313C19.7973 10.75 18 8.95273 18 6.71875V2.6875V0H12.625ZM38.3578 10.75C38.6098 10.75 38.8617 10.75 39.1137 10.7668C39.3656 10.7836 39.6176 10.8004 39.8695 10.8172C40.3734 10.8676 40.8605 10.9348 41.3477 11.0355C42.3219 11.2203 43.2793 11.5059 44.2031 11.8754C46.034 12.6145 47.7473 13.6895 49.1918 15.0836C52.2152 13.5047 54.2813 10.3637 54.2813 6.71875V2.6875V0H48.9063V2.6875V6.71875C48.9063 8.95273 47.109 10.75 44.875 10.75H40.8438H38.3578Z" opacity="0.4"/>
<path fill="#3BAE85" d="M18 18.8125L28.75 16.125H29.9258H34.125H36.8125V10.8844C37.3164 10.8004 37.8371 10.75 38.3578 10.75C42.5402 10.75 46.5379 12.4129 49.4774 15.3523L61 26.875V37.625H44.875H43.9848L41.6303 44.6795H25.7373C25.3638 44.6795 25.0214 44.4713 24.8495 44.1397L17.2935 29.5625H25.7938L27.4063 24.1875H18V18.8125ZM40.2872 22.2872C39.7832 22.7912 39.5 23.4747 39.5 24.1875C39.5 24.9003 39.7832 25.5838 40.2872 26.0878C40.7912 26.5919 41.4747 26.875 42.1875 26.875C42.9003 26.875 43.5839 26.5919 44.0879 26.0878C44.5919 25.5838 44.875 24.9003 44.875 24.1875C44.875 23.4747 44.5919 22.7912 44.0879 22.2872C43.5839 21.7831 42.9003 21.5 42.1875 21.5C41.4747 21.5 40.7912 21.7831 40.2872 22.2872Z" clip-rule="evenodd" fill-rule="evenodd"/>
</g>
<defs>
<clipPath id="clip0_4_3">
<rect transform="translate(-25)" fill="white" height="86" width="86"/>
</clipPath>
</defs>
</svg>